<svg xmlns="http://www.w3.org/2000/svg" viewBox="0 0 24 24" width="24" height="24" aria-hidden="true">
  <path fill="currentColor" fill-rule="evenodd" d="M4.25 2.5h10.2L20 8.1V21a1 1 0 0 1-1 1H5a1 1 0 0 1-1-1V3.5a1 1 0 0 1 .25-.68Zm9.75 1.95v4.2h4.07L14 4.45Zm-6.55 1.3h5.35a.5.5 0 0 1 .5.5v1.45a.5.5 0 0 1-.5.5H7.45a.5.5 0 0 1-.5-.5V6.25a.5.5 0 0 1 .5-.5Zm-.35 3.2h6.65l.52 4.55-3.87 6.7-3.82-6.7.52-4.55Zm3.33 2.2a1.02 1.02 0 1 0 0 2.04 1.02 1.02 0 0 0 0-2.04Zm-.42 2.43h.84v2.42l.45 3.35H9.56l.45-3.35v-2.42Z" clip-rule="evenodd"/>
</svg>
