<svg xmlns="http://www.w3.org/2000/svg" viewBox="0 0 24 24" width="24" height="24" aria-hidden="true">
  <path fill="currentColor" fill-rule="evenodd" d="M3 2.5h10.5L21 10v11.5H3v-19Zm11.4 1.95v4.7h4.68L14.4 4.45Zm-8 1.05a.6.6 0 0 0-.6.6v12.8c0 .33.27.6.6.6h11.2c.33 0 .6-.27.6-.6v-8.9l-5.35-5.35H6.4Zm1.35 1.45h4.95v1.85H7.75V6.95Zm0 3.1h6.35l.55 5.45-3 6.1-4.2-6.1.3-5.45Z" clip-rule="evenodd"/>
  <circle cx="8.85" cy="11.95" r="1.05" fill="currentColor"/>
  <path fill="currentColor" d="M8.45 13h.8v3.9l.45 4.15h-1.7l.45-4.15Z"/>
</svg>
